<svg xmlns="http://www.w3.org/2000/svg" id="Слой_1" x="0" y="0" version="1.1" viewBox="0 0 14.9 21.3" xml:space="preserve"><path d="M7.4 21.3c-.2 0-.4-.1-.6-.3l-5.5-9.3c-.2-.3-.4-.6-.6-1L.3 9.5C.1 8.8 0 8.1 0 7.4c0-2 .8-3.8 2.2-5.2C3.6.8 5.4 0 7.4 0h.1c.7 0 1.3.1 2 .3 3.9 1.1 6.2 5.2 5.1 9.1v.1l-.5 1.2c-.2.4-.4.7-.6 1.1L8 21c-.1.2-.4.3-.6.3zm0-20c-1.6 0-3.2.6-4.3 1.8-1.2 1.1-1.8 2.7-1.8 4.3 0 .6.1 1.1.2 1.7l.5 1.1c.1.2.3.5.5.8l5 8.4 5-8.4c.2-.3.4-.6.5-.9l.4-1.1c.9-3.2-1-6.6-4.2-7.5-.6-.1-1.2-.2-1.8-.2z" class="st0"/><path d="M7.5 12.6c-2.7 0-4.8-2.2-4.8-4.8C2.7 5.1 4.9 3 7.5 3c2.7 0 4.8 2.2 4.8 4.8 0 2.6-2.2 4.8-4.8 4.8zm0-8.4C5.6 4.2 4 5.8 4 7.7s1.6 3.5 3.5 3.5S11 9.6 11 7.7 9.4 4.2 7.5 4.2z" class="st0"/></svg>