<svg id="regular" xmlns="http://www.w3.org/2000/svg" viewBox="0 0 20 20"><defs><style>.cls-1{fill:#fff;}</style></defs><title>Инста</title><path class="cls-1" d="M4,20H16a4,4,0,0,0,4-4V4a4,4,0,0,0-4-4H4A4,4,0,0,0,0,4V16A4,4,0,0,0,4,20ZM1.25,4A2.71,2.71,0,0,1,4,1.25H16A2.71,2.71,0,0,1,18.75,4V16A2.72,2.72,0,0,1,16,18.75H4A2.71,2.71,0,0,1,1.25,16Z"/><path class="cls-1" d="M10,15.11A5.11,5.11,0,1,0,4.89,10,5.11,5.11,0,0,0,10,15.11Zm0-9A3.86,3.86,0,1,1,6.14,10,3.86,3.86,0,0,1,10,6.14Z"/><path class="cls-1" d="M15.3,6.13A1.4,1.4,0,0,0,16.74,4.7a1.44,1.44,0,0,0-2.88,0A1.4,1.4,0,0,0,15.3,6.13Zm.15-1.57c.26.24-.34.52-.34.14C15.11,4.48,15.41,4.53,15.45,4.56Z"/></svg>