<svg id="Слой_1" data-name="Слой 1" xmlns="http://www.w3.org/2000/svg" viewBox="0 0 85.78 40"><defs><style>.cls-1{fill:#fff;}</style></defs><title>Лого</title><path class="cls-1" d="M26.5,29a10.2,10.2,0,0,1-6.22,2C14.41,31,10,26.27,10,20S14.32,9,20.28,9a10.07,10.07,0,0,1,7,2.73l.61.57,6.67-6.67L33.82,5A20.56,20.56,0,0,0,20.28.08a19.92,19.92,0,1,0,0,39.84,20.85,20.85,0,0,0,12.63-4.21l.78-.61L27.1,28.52Z"/><path class="cls-1" d="M73,0H85.78L64,19.52,85.78,40H73L50.88,19.62Z"/><path class="cls-1" d="M50,0H62.78L41,19.52,62.78,40H50L27.88,19.62Z"/></svg>