<svg id="Layer_1" data-name="Layer 1" xmlns="http://www.w3.org/2000/svg" viewBox="0 0 20 20"><defs><style>.cls-1{fill:#fff;}</style></defs><title>Телефон</title><path class="cls-1" d="M14.37,20a5.54,5.54,0,0,1-1.91-.34,20.23,20.23,0,0,1-7.4-4.72A20.23,20.23,0,0,1,.34,7.54,5.5,5.5,0,0,1,.06,4.82,5.79,5.79,0,0,1,1,2.4,5.68,5.68,0,0,1,3,.67,5.51,5.51,0,0,1,5.64,0a.62.62,0,0,1,.61.49l1,4.58a.6.6,0,0,1-.17.57L5.39,7.32a16.47,16.47,0,0,0,7.29,7.29l1.68-1.67a.6.6,0,0,1,.57-.17l4.58,1a.62.62,0,0,1,.49.61A5.51,5.51,0,0,1,19.33,17,5.68,5.68,0,0,1,17.6,19a5.79,5.79,0,0,1-2.42,1,5.52,5.52,0,0,1-.81.06ZM5.14,1.28A4.31,4.31,0,0,0,2.05,3.12a4.28,4.28,0,0,0-.53,4A18.93,18.93,0,0,0,12.89,18.48a4.37,4.37,0,0,0,5.83-3.62L15,14.06l-1.75,1.75a.61.61,0,0,1-.71.12A17.61,17.61,0,0,1,4.07,7.46a.61.61,0,0,1,.12-.71L5.94,5Z"/><path class="cls-1" d="M19.37,10.62a.62.62,0,0,1-.62-.62A8.77,8.77,0,0,0,10,1.25.63.63,0,0,1,10,0,10,10,0,0,1,20,10a.63.63,0,0,1-.63.62Z"/><path class="cls-1" d="M16.88,10.62a.63.63,0,0,1-.63-.62A6.25,6.25,0,0,0,10,3.75.63.63,0,0,1,10,2.5,7.5,7.5,0,0,1,17.5,10,.62.62,0,0,1,16.88,10.62Z"/><path class="cls-1" d="M14.38,10.62a.63.63,0,0,1-.63-.62A3.75,3.75,0,0,0,10,6.25.63.63,0,0,1,10,5a5,5,0,0,1,5,5A.62.62,0,0,1,14.38,10.62Z"/></svg>