<?xml version="1.0" encoding="UTF-8"?>
<svg width="13" height="12" viewBox="0 0 205 253" xmlns="http://www.w3.org/2000/svg" xmlns:xlink="http://www.w3.org/1999/xlink" version="1.1">
 <!-- Generated by Pixelmator Pro 1.3.2 -->
 <path id="path" d="M197.232 112.703 C197.226 112.697 197.221 112.69 197.214 112.684 L93.486 7.91 C85.715 0.061 73.053 -0.005 65.202 7.767 57.352 15.538 57.287 28.201 65.058 36.051 L134.701 106.395 -288.845 103.246 C-299.891 103.164 -308.911 112.051 -308.993 123.097 -309.075 134.143 -300.188 143.163 -289.142 143.245 L134.403 146.394 63.724 215.694 C55.837 223.428 55.713 236.09 63.447 243.977 71.181 251.866 83.845 251.987 91.73 244.255 L197.005 141.035 C197.011 141.029 197.016 141.022 197.023 141.016 204.914 133.256 204.983 120.552 197.232 112.703 Z" fill="white" fill-opacity="1" stroke="none"/>
</svg>
