<svg id="regular" xmlns="http://www.w3.org/2000/svg" viewBox="0 0 26.25 16.88"><defs><style>.cls-1{fill:#fff;}</style></defs><title>ВК</title><path class="cls-1" d="M26.13,13.94c-.49-1.51-2.56-3.67-3.68-4.83l-.25-.26c.8-1.12,3.07-4.54,3.46-6.1A2.09,2.09,0,0,0,25.39.82,2.16,2.16,0,0,0,23.54,0H21a2.51,2.51,0,0,0-2.42,1.62,21.22,21.22,0,0,1-2.07,3.83c0-.67,0-1.23,0-1.66V3.58c0-1.14.06-2.31-.63-3A2,2,0,0,0,14.38,0h-4A2.07,2.07,0,0,0,8.49,1.14,2.19,2.19,0,0,0,8.91,3.5c.43.54.43.86.39,2q0,.31,0,.72A22.8,22.8,0,0,1,7.33,2,2.51,2.51,0,0,0,4.85,0H2.29A2.08,2.08,0,0,0,0,2.14C0,4.45,4.78,16.88,13.28,16.88A3.52,3.52,0,0,0,16,16a2.58,2.58,0,0,0,.5-2.1,3.33,3.33,0,0,1,0-.38.74.74,0,0,0,.05-.25v-.13c.22.18.49.42.82.74s.79.84,1.1,1.18c.92,1,1.59,1.79,2.9,1.79H23.9A2.3,2.3,0,0,0,25.84,16,2.23,2.23,0,0,0,26.13,13.94Zm-1.29,1.32a1.12,1.12,0,0,1-.94.37H21.33c-.71,0-1-.33-2-1.37-.32-.36-.68-.77-1.15-1.23a6.19,6.19,0,0,0-2.15-1.58.51.51,0,0,0-.17,0,.58.58,0,0,0-.36.12.6.6,0,0,0-.26.47c0,.28,0,.73,0,1.2a2.24,2.24,0,0,0,0,.82c0,.52,0,.9-.18,1.15s-.64.45-1.78.45c-7.48,0-12-11.68-12-13.49,0-.22,0-.89,1-.89H4.85c.69,0,1,.27,1.3,1.1a19.67,19.67,0,0,0,3.33,6.3.63.63,0,0,0,.7.15.62.62,0,0,0,.38-.61,23.38,23.38,0,0,1,0-2.65,3.54,3.54,0,0,0-.67-2.82,1,1,0,0,1-.26-1,.83.83,0,0,1,.73-.43h4a.8.8,0,0,1,.61.18c.32.33.3,1.24.27,2.11v.23c0,.75,0,1.9,0,3.39a.62.62,0,0,0,.38.56.61.61,0,0,0,.66-.1,18.65,18.65,0,0,0,3.42-5.53A1.26,1.26,0,0,1,21,1.25h2.57c.61,0,.79.24.85.32a.89.89,0,0,1,.07.83h0v0c-.32,1.32-2.7,4.95-3.43,5.91a.41.41,0,0,0-.05.09,1.74,1.74,0,0,0-.11.18.62.62,0,0,0,0,.62,5.35,5.35,0,0,0,.66.73c.89.94,3,3.11,3.38,4.34A1,1,0,0,1,24.84,15.26Z"/></svg>